<?xml version="1.0" encoding="UTF-8" standalone="no"?>
<!-- Created with Inkscape (http://www.inkscape.org/) -->

<svg
   xmlns:svg="http://www.w3.org/2000/svg"
   xmlns="http://www.w3.org/2000/svg"
   version="1.1"
   width="307"
   height="348"
   id="svg2971">
  <defs
     id="defs2975" />
  <path
     d="m 145.24212,318.94085 c -1.35506,-0.25062 -7.17564,-1.60778 -12.93463,-3.01595 l -10.47088,-2.56028 -7.39121,-3.69857 c -4.06517,-2.03422 -11.11432,-6.44334 -15.664771,-9.79804 l -8.27354,-6.09947 -8.865503,-9.46118 -8.865502,-9.4612 -8.548753,-12.93462 C 51.182183,242.17367 44.968464,226.82304 38.796517,199.08622 l -2.329958,-10.47089 -0.774882,-14.78243 -0.774895,-14.78243 1.817955,-11.08682 c 2.059636,-12.56064 5.804518,-26.89767 7.186158,-27.51173 0.508146,-0.22586 0.941308,-1.33454 0.96257,-2.46374 0.04693,-2.49172 5.827171,-14.31302 9.566189,-19.563986 1.492607,-2.096173 2.713833,-4.172525 2.713833,-4.614089 0,-0.441576 2.686299,-4.122819 5.969563,-8.180534 l 5.969551,-7.377677 10.352713,-8.770251 C 92.662675,58.293081 100.58306,53.246192 114.21012,47.335819 l 10.94038,-4.745103 12.68281,-3.055603 c 6.97555,-1.680582 13.85211,-3.055603 15.28125,-3.055603 l 2.59845,0 0.0188,-1.539836 0.0188,-1.539837 1.09188,1.724522 1.09188,1.724522 3.46865,-2.728436 3.46863,-2.728436 8.04727,0.757397 c 4.426,0.416569 11.66547,1.264555 16.08772,1.884411 l 8.04042,1.127013 8.58981,3.608729 c 16.71869,7.023809 22.99401,11.171792 33.84315,22.37029 l 5.54341,5.721915 5.80718,11.602025 5.80719,11.602026 1.82542,6.775279 c 1.98208,7.356726 5.4398,34.519526 4.68316,36.789446 -0.25639,0.76916 -1.08275,1.39849 -1.83636,1.39849 -0.75362,0 -9.71547,3.11829 -19.91522,6.92953 l -18.54501,6.92955 -11.08682,5.56806 -11.08682,5.56806 -13.83979,4.70882 -13.83977,4.70883 -19.32615,3.73535 -19.32614,3.73534 -8.26632,0 -8.26632,0 -4.42362,4.89642 -4.42362,4.89643 -0.80447,3.20526 -0.80447,3.20526 0.57611,12.95355 0.57611,12.95353 1.3519,0.83553 c 0.74354,0.45953 1.91974,2.32905 2.61377,4.15447 l 1.26186,3.31897 -1.1848,0.73225 -1.1848,0.73223 0,-2.12581 0,-2.12581 -0.82195,0.82195 -0.82195,0.82194 2.21348,9.54628 2.21347,9.54628 2.521,5.28065 2.521,5.28064 7.09013,6.42211 c 7.7344,7.0057 15.08865,11.96553 17.74206,11.96553 0.92934,0 1.99877,0.5001 2.37654,1.11134 0.37776,0.61123 4.55386,2.28591 9.28022,3.72149 l 8.59337,2.61016 4.65101,-0.002 c 2.55805,-0.001 8.25422,-0.203 12.65816,-0.44798 l 8.00716,-0.44542 3.32793,-1.37251 3.32793,-1.37252 9.26291,-8.79887 9.26292,-8.79886 5.01948,-8.70619 5.0195,-8.70618 2.5106,-7.45261 2.5106,-7.45261 -0.62165,-11.98157 -0.62165,-11.98155 1.44248,-1.16399 c 0.79337,-0.64019 4.49137,-2.1379 8.21777,-3.32823 7.35255,-2.34863 9.88265,-3.39632 15.12968,-6.26504 l 3.42693,-1.87361 4.88894,-0.4475 4.88893,-0.44752 1.14517,2.13977 1.14517,2.13976 -0.83795,1.29461 -0.83795,1.29461 -6.77528,1.46057 c -3.7264,0.80332 -10.02052,2.37491 -13.98694,3.49245 l -7.21169,2.03187 -0.61658,1.60681 -0.61659,1.6068 -0.93761,-0.57947 -0.9376,-0.57947 -0.62082,15.061 -0.62081,15.06102 -2.22919,5.54341 c -1.22605,3.04888 -4.62646,9.21253 -7.55643,13.69702 l -5.32726,8.1536 -8.31018,8.6292 c -9.65389,10.02445 -10.84298,10.73671 -23.42762,14.03293 l -9.44643,2.47426 -6.66247,0 -6.66247,0 -1.31986,-1.31986 -1.31986,-1.31996 1.17028,-0.0759 c 0.64365,-0.0418 -4.09597,-1.46882 -10.53248,-3.17134 l -11.70276,-3.09553 -8.21766,-4.42645 -8.21765,-4.42646 -5.65318,-5.49497 -5.65317,-5.49496 -2.40475,-5.43631 c -3.20117,-7.23677 -7.15893,-22.40848 -8.62191,-33.05128 l -1.18534,-8.62308 0.26693,-13.76117 0.26693,-13.76116 2.61777,-2.86907 c 1.43977,-1.57799 3.28851,-4.16796 4.10832,-5.75551 l 1.49055,-2.88644 -0.81835,-3.26056 c -0.4501,-1.79332 -1.46733,-3.67338 -2.26051,-4.17794 l -1.44218,-0.91738 2.22848,-0.0188 2.22846,-0.0189 -0.76133,-1.23187 -0.76133,-1.23187 3.11443,0 3.11444,0 4.86869,2.5377 4.86869,2.53771 4.40826,-0.827 4.40826,-0.82699 0.0189,1.67693 0.0188,1.67693 1.19417,-1.84778 1.19414,-1.8478 0.0188,1.34453 0.0188,1.34455 5.23545,-0.86964 c 2.87949,-0.47829 10.38895,-1.7978 16.6877,-2.93224 l 11.45224,-2.0626 13.11286,-4.34113 c 7.21209,-2.38764 17.68568,-6.52365 23.27465,-9.19116 5.58899,-2.66752 10.45556,-4.85002 10.81462,-4.85002 0.35906,0 3.85673,-1.44568 7.77259,-3.21262 8.56948,-3.86677 12.05524,-5.32438 22.51812,-9.41613 l 8.00715,-3.13139 -0.1825,-10.29 c -0.1004,-5.65949 -0.52637,-12.6756 -0.94667,-15.59135 l -0.76417,-5.301361 -6.86919,-13.696787 -6.8692,-13.69679 -5.7347,-6.088573 C 222.77199,53.056161 204.52816,41.867865 194.65591,40.629885 l -3.5566,-0.445997 -1.49081,-2.038805 -1.49081,-2.038806 -0.87668,1.418486 c -0.48218,0.780166 -1.43102,1.418485 -2.10855,1.418485 l -1.23186,0 0.68916,-1.115103 0.68917,-1.115101 -7.22278,0.654938 -7.22277,0.654938 -0.85761,-1.387639 c -0.47168,-0.763202 -1.31764,-1.38764 -1.87991,-1.38764 l -1.02229,0 0.1711,2.023186 0.17109,2.023186 -1.71418,0.601322 -1.71417,0.601321 0.61944,-3.240443 0.61946,-3.240441 -1.56165,0 -1.56165,0 0.64428,2.463738 0.64428,2.463738 -1.68351,0.145879 c -0.92594,0.08023 -2.04668,0.09776 -2.49056,0.03895 -0.44388,-0.05881 -1.11941,0.707054 -1.50118,1.701924 l -0.69412,1.808852 2.73304,0.122793 2.73305,0.122792 -3.07968,0.986284 c -1.69382,0.542456 -5.22632,1.04154 -7.85001,1.109076 l -4.77035,0.122793 1.45332,-1.751151 1.45334,-1.751151 -4.0742,0.467196 c -15.06067,1.72704 -42.84326,15.06632 -55.40502,26.601667 -2.485887,2.28277 -6.558335,5.813515 -9.049864,7.846099 -2.491541,2.032584 -5.723867,5.03789 -7.182954,6.678457 -1.459088,1.640568 -3.484403,3.879993 -4.500695,4.976517 -4.327507,4.669091 -12.584232,17.656135 -15.843302,24.919985 l -3.517971,7.84089 -3.973862,14.13221 -3.973874,14.13221 0.01651,13.95771 c 0.0086,7.67673 0.412097,17.65157 0.895581,22.16631 l 0.879074,8.20862 1.98007,1.63851 1.980057,1.63851 -1.539837,-0.77999 c -0.84691,-0.42899 -1.539836,-0.60848 -1.539836,-0.39885 0,2.36576 4.185041,18.60197 6.843156,26.54861 l 3.396509,10.15413 1.891917,-1.53104 1.891916,-1.53103 -0.90971,1.51493 -0.909711,1.51492 1.893272,5.5765 1.893284,5.57651 7.095073,11.17137 c 11.886797,18.71602 21.579401,29.76257 35.076397,39.97614 l 7.74289,5.85928 7.67131,3.62009 c 4.21924,1.99105 9.48548,3.9058 11.70276,4.255 2.21729,0.3492 4.96734,1.13552 6.11122,1.74741 l 2.07978,1.11248 10.85485,0.6986 c 5.97015,0.38422 14.45805,0.68078 18.86198,0.65902 l 8.00715,-0.0395 6.15935,-1.3488 c 3.38764,-0.74183 7.23272,-1.34344 8.54461,-1.3369 5.05432,0.0253 23.86908,-6.12922 37.15706,-12.15428 l 8.01576,-3.63452 6.20275,-6.43548 c 3.41151,-3.53951 10.09075,-11.67673 14.84276,-18.08271 l 8.64002,-11.64722 2.38277,-6.91018 2.38275,-6.91017 0.14906,-24.63738 c 0.0819,-13.55056 -0.0769,-25.74579 -0.35289,-27.10053 l -0.50194,-2.46313 2.52472,-0.36188 2.52471,-0.36187 1.64101,11.07539 1.641,11.07539 -0.84303,15.15514 c -0.46366,8.33532 -1.41377,18.48118 -2.11136,22.54635 l -1.26835,7.39121 -2.5842,4.31154 c -1.42132,2.37135 -4.56315,6.88748 -6.98184,10.03585 -2.41869,3.14838 -5.50629,7.26787 -6.86135,9.15443 -1.35506,1.88656 -4.75484,6.13079 -7.55509,9.43161 l -5.09134,6.0015 -7.22735,4.68671 -7.22734,4.68672 -12.31869,4.34645 c -6.77528,2.39054 -15.09039,5.24178 -18.47803,6.33608 l -6.15935,1.98965 -9.85496,1.25256 -9.85496,1.25256 -12.93462,-0.22863 c -7.11404,-0.12576 -14.04331,-0.43369 -15.39836,-0.6843 l 0,-3e-5 z m 25.25331,-33.00787 c 0,-0.33876 -0.27717,-0.61593 -0.61593,-0.61593 -0.33876,0 -0.61594,0.27717 -0.61594,0.61593 0,0.33877 0.27718,0.61594 0.61594,0.61594 0.33876,0 0.61593,-0.27717 0.61593,-0.61594 z m 7.05981,-1.4696 c -1.19857,-0.31233 -2.8616,-0.2918 -3.69561,0.0457 l -1.51639,0.61353 3.6956,-0.0457 3.69561,-0.0456 -2.17921,-0.56788 0,-7e-5 z M 155.71301,42.02292 c 0,-0.338764 -0.27717,-0.615934 -0.61594,-0.615934 -0.33876,0 -0.61593,0.27717 -0.61593,0.615934 0,0.338764 0.27717,0.615935 0.61593,0.615935 0.33877,0 0.61594,-0.277171 0.61594,-0.615935 z m 18.786,-6.359254 -1.53984,-0.621337 -1.53983,0.621337 -1.53984,0.621338 3.07967,0 3.07967,0 -1.53983,-0.621338 z m 4.61951,0.199909 c 0,-0.338764 -0.27717,-0.615934 -0.61594,-0.615934 -0.33876,0 -0.61593,0.27717 -0.61593,0.615934 0,0.338764 0.27717,0.615935 0.61593,0.615935 0.33877,0 0.61594,-0.277171 0.61594,-0.615935 z M 128.61189,305.64289 c 0,-0.33877 0.27717,-0.61594 0.61593,-0.61594 0.33877,0 0.61594,0.27717 0.61594,0.61594 0,0.33876 -0.27717,0.61593 -0.61594,0.61593 -0.33876,0 -0.61593,-0.27717 -0.61593,-0.61593 z M 64.554701,245.2813 c 0,-0.33876 0.27717,-0.61593 0.615934,-0.61593 0.338764,0 0.615935,0.27717 0.615935,0.61593 0,0.33877 -0.277171,0.61594 -0.615935,0.61594 -0.338764,0 -0.615934,-0.27717 -0.615934,-0.61594 z m 73.090889,-79.04493 0.82125,-0.82124 0.82125,0.82124 0.82124,0.82125 -1.64249,0 -1.64249,0 0.82124,-0.82125 z m -5.74871,-30.79672 c -0.45169,-0.45168 -0.82125,-1.3029 -0.82125,-1.89158 l 0,-1.07033 5.23544,-2.21719 c 2.87949,-1.21945 9.67017,-3.73676 15.09039,-5.59402 5.42023,-1.85726 13.45817,-5.06781 17.8621,-7.13456 l 8.00715,-3.75772 5.21572,-0.61741 5.21573,-0.61742 1.31494,-1.5844 1.31495,-1.5844 -3.45101,-4.89063 -3.45098,-4.890645 -3.98527,-2.752254 c -2.1919,-1.513733 -7.70033,-4.100732 -12.24093,-5.748887 l -8.25567,-2.996644 -6.85304,7.244855 -6.85303,7.244855 -3.56015,7.29284 c -1.95808,4.01105 -3.98528,8.12433 -4.50487,9.14062 l -0.94472,1.8478 -1.43807,-0.33849 -1.43808,-0.33848 0.6551,1.05996 0.65509,1.05998 -1.07357,3.59006 -1.07359,3.59006 -0.10594,-2.15577 -0.10581,-2.15577 -1.06105,0 -1.06104,0 0.59365,-3.38764 c 0.3265,-1.86321 2.71784,-7.98152 5.31409,-13.59627 l 4.72046,-10.208648 7.75766,-8.090731 7.75767,-8.090744 5.78848,0.679754 5.78848,0.679753 7.76208,3.845004 c 9.28999,4.601869 11.99438,7.004753 18.33386,16.289912 l 4.8266,7.06932 0,3.18645 0,3.18643 -3.53892,-0.37121 -3.53891,-0.3712 -4.77622,2.30743 c -2.62691,1.26908 -5.73877,2.78019 -6.91525,3.35804 -1.17649,0.57783 -2.98413,1.05061 -4.017,1.05061 -1.03288,0 -4.22785,1.05734 -7.09997,2.34965 -5.82459,2.62078 -32.44111,11.20091 -34.74648,11.20091 -0.81266,0 -1.84714,-0.36956 -2.29881,-0.82125 z m -80.892739,-7.1859 c 0,-0.33877 0.277171,-0.61594 0.615935,-0.61594 0.338764,0 0.615934,0.27717 0.615934,0.61594 0,0.33876 -0.27717,0.61593 -0.615934,0.61593 -0.338764,0 -0.615935,-0.27717 -0.615935,-0.61593 z M 85.496474,77.593943 c 0,-1.209813 4.418554,-5.611905 9.181649,-9.147446 l 2.40637,-1.786196 -2.40637,3.348928 c -1.323507,1.84191 -2.800531,3.366348 -3.282278,3.38764 -0.481759,0.02129 -2.006197,1.251921 -3.387639,2.734732 l -2.511732,2.696022 0,-1.23368 z M 105.25037,60.608716 c 0.9921,-0.957024 4.02118,-2.612697 6.73129,-3.679274 l 4.92747,-1.939231 -4.26501,3.679274 -4.265,3.679274 -2.46628,0 -2.46627,0 1.8038,-1.740043 z m 19.66591,-8.730843 c 0,-0.338764 0.27717,-0.615935 0.61593,-0.615935 0.33877,0 0.61594,0.277171 0.61594,0.615935 0,0.338764 -0.27717,0.615934 -0.61594,0.615934 -0.33876,0 -0.61593,-0.27717 -0.61593,-0.615934 z"
     id="path3158"
     style="fill:#000000" />
</svg>
