<svg xmlns="http://www.w3.org/2000/svg" viewBox="0 0 171.17 171.16"><defs><style>.cls-1,.cls-2{fill:#fff;}.cls-1,.cls-3{opacity:0.1;}.cls-4{opacity:0.2;}.cls-5{fill:#ffb800;}</style></defs><g id="Layer_2" data-name="Layer 2"><g id="Layer_1-2" data-name="Layer 1"><path class="cls-1" d="M85.58,3.69C38.84,3.69,1,40.35,1,85.58s37.89,81.9,84.63,81.9,84.64-36.67,84.64-81.9S132.33,3.69,85.58,3.69Zm.08,153.24C42.5,156.93,7.5,125,7.5,85.58s35-71.35,78.16-71.35,78.16,32,78.16,71.35S128.83,156.93,85.66,156.93Z"/><path class="cls-2" d="M85.58,0a85.58,85.58,0,1,0,85.59,85.58A85.59,85.59,0,0,0,85.58,0Zm.09,165.56c-46.34,0-83.91-35.81-83.91-80s37.57-80,83.91-80,83.91,35.81,83.91,80S132,165.56,85.67,165.56Z"/><path class="cls-2" d="M43.48,27.27c1.6,1.84-.76,6.51-5.26,10.43s-9.45,5.61-11,3.77.75-6.5,5.26-10.42S41.88,25.43,43.48,27.27Z"/><path class="cls-2" d="M54.34,20.07c.66,1.08-.28,2.84-2.09,3.93s-3.79,1.11-4.45,0,.29-2.84,2.1-3.93S53.69,19,54.34,20.07Z"/><path class="cls-2" d="M142.3,139.6c.72.9-.43,3-2.57,4.77s-4.47,2.4-5.2,1.5.42-3,2.56-4.77S141.57,138.7,142.3,139.6Z"/><path class="cls-3" d="M155.05,98.1c6.09,2.05-1.93,23.1-19.4,37.83-15.46,13-42.05,19.22-43.27,13.52-1.51-7.08,13.59-6.18,35.29-21.61C151.21,111.09,148,95.71,155.05,98.1Z"/><g class="cls-4"><path d="M120.15,66.29l1.8-2.14c4.43-5.26,2.48-10.4-4.32-11.42L95.14,49.38c-6.8-1-10.64,3.51-8.53,10.06L93.67,81.3c2.11,6.55,7.46,7.6,11.9,2.33l3.27-3.89c6,8.93,5,22-4,30.59a25.24,25.24,0,0,1-5.94,4.16c-1.67,1.08-5.48,4.25-3.13,9.56,3,6.7,10.1,5.23,14.53,2.5a4,4,0,0,1,.66-.33,48.88,48.88,0,0,0,6-4.55C132,108.34,134,82.57,120.15,66.29Z"/><path d="M77.08,97.46c-2.16-6.54-7.52-7.55-11.91-2.25l-2.09,2.53a24.18,24.18,0,0,1,4.45-27.93,25.27,25.27,0,0,1,5.76-4.4c1.63-1.15,5.3-4.48,2.73-9.69-3.23-6.57-10.11-4.57-14.62-1.89-.25.14-.45.27-.65.36A50.21,50.21,0,0,0,55,59C41.37,72.1,39.7,95.73,51.63,111.54l-2.7,3.26c-4.39,5.3-2.41,10.42,4.4,11.39l22.5,3.19c6.82,1,10.62-3.59,8.46-10.12Z"/></g><path class="cls-5" d="M120.15,60.65l1.8-2.14c4.43-5.27,2.48-10.41-4.32-11.42L95.14,43.74c-6.8-1-10.64,3.51-8.53,10.06l7.06,21.86c2.11,6.54,7.46,7.59,11.9,2.33l3.27-3.89c6,8.93,5,22-4,30.59a25.24,25.24,0,0,1-5.94,4.16c-1.67,1.08-5.48,4.25-3.13,9.56,3,6.7,10.1,5.23,14.53,2.5a4,4,0,0,1,.66-.33,48.88,48.88,0,0,0,6-4.55C132,102.7,134,76.93,120.15,60.65Z"/><path class="cls-5" d="M77.08,91.82c-2.16-6.54-7.52-7.55-11.91-2.25L63.08,92.1a24.18,24.18,0,0,1,4.45-27.93,25.27,25.27,0,0,1,5.76-4.4c1.63-1.15,5.3-4.48,2.73-9.69-3.23-6.57-10.11-4.57-14.62-1.89-.25.14-.45.27-.65.36A50.21,50.21,0,0,0,55,53.34C41.37,66.46,39.7,90.09,51.63,105.9l-2.7,3.26c-4.39,5.3-2.41,10.42,4.4,11.39l22.5,3.19c6.82,1,10.62-3.59,8.46-10.13Z"/><path class="cls-2" d="M87.23,51.79a5.34,5.34,0,1,0,5.34-5.34A5.34,5.34,0,0,0,87.23,51.79Z"/><path class="cls-2" d="M98.9,113.44a25.5,25.5,0,0,0,5.94-4.15,24.55,24.55,0,0,0,7.66-20.14,24.67,24.67,0,0,1-7.66,15.54,25.24,25.24,0,0,1-5.94,4.16c-1.58,1-5.05,3.9-3.47,8.68A8.84,8.84,0,0,1,98.9,113.44Z"/><path class="cls-2" d="M95.14,48.33l22.49,3.36c3.19.47,5.3,1.87,6.2,3.75,1.58-4.06-.74-7.54-6.2-8.35L95.14,43.74c-6.45-1-10.22,3.06-8.8,9C87.3,49.5,90.54,47.64,95.14,48.33Z"/><path class="cls-2" d="M122,63l0,.07-1.8,2.14A39.8,39.8,0,0,1,129.4,89,40.6,40.6,0,0,0,122,63Z"/><path class="cls-2" d="M53.53,108.22c-.55-.68-1.22-1.44-1.91-2.33l-2.69,3.27c-2.31,2.79-2.84,5.52-1.84,7.64a11.11,11.11,0,0,1,1.84-3Z"/><path class="cls-2" d="M65.17,89.57,63.08,92.1a30.46,30.46,0,0,1-2.6-10.18,25.28,25.28,0,0,0,3.21,13.79l1.48-1.54c4.39-5.3,9.75-4.29,11.91,2.24l7.21,21.8c.12.36.22.71.3,1.06a9.48,9.48,0,0,0-.3-5.66L77.08,91.82C74.92,85.28,69.56,84.27,65.17,89.57Z"/><path class="cls-2" d="M55,57.93a51.26,51.26,0,0,1,5.79-4.79,5,5,0,0,0,.65-.36c4.51-2.67,12.95-5.72,14.9,1.17a9.28,9.28,0,0,1,.19,1.88A7,7,0,0,0,76,50.08c-3.23-6.57-10.11-4.57-14.62-1.89-.25.14-.45.27-.65.36A50.21,50.21,0,0,0,55,53.34C47,61.07,43.09,72.45,43.7,83.73,44.22,74,48,64.61,55,57.93Z"/></g></g></svg>